# xmcd
#
# Track frame offsets:
# 150
# 13762
# 28025
# 45487
# 60592
# 72970
# 101680
# 115207
# 130087
# 151842
# 165442
# 184372
#
# Disc length: 2651 seconds
#
#
# Revision: 0
# Processed by: cddbd v1.4PL0 Copyright (c) Steve Scherf et al.
# Submitted via: FreeRIP 2.35 
#
DISCID=980a590c
DTITLE=Roger Pontare - Pontare och Kramfors Big Band
DYEAR=1993
DGENRE=Blues
TTITLE0=Let the Good Times Roll
TTITLE1=This Old World is too Funky for Me
TTITLE2=Silverbarn
TTITLE3=Highburner
TTITLE4=My Soul is a Witness
TTITLE5=Visa från Ådalen
TTITLE6=Start it Up
TTITLE7=It Ain't Nobody's business
TTITLE8=Ton-Eriks Visa
TTITLE9=Kiss
TTITLE10=Dirty Old Man
TTITLE11=Somewhere
EXTD=
EXTT0=
EXTT1=
EXTT2=
EXTT3=
EXTT4=
EXTT5=
EXTT6=
EXTT7=
EXTT8=
EXTT9=
EXTT10=
EXTT11=
PLAYORDER=
